<svg width="24" height="24" viewBox="0 0 24 24" fill="none" xmlns="http://www.w3.org/2000/svg">
<path d="M10.2275 8.69543L10.5021 8.27755C10.3485 8.17663 10.1519 8.16812 9.99013 8.25539C9.82837 8.34266 9.72754 8.51164 9.72754 8.69543H10.2275ZM15.2574 11.9999L15.5326 12.4174C15.6731 12.3248 15.7576 12.1678 15.7574 11.9996C15.7573 11.8313 15.6726 11.6744 15.532 11.5821L15.2574 11.9999ZM10.2275 15.3157H9.72754C9.72754 15.4997 9.82853 15.6688 9.99047 15.756C10.1524 15.8432 10.3492 15.8344 10.5027 15.7332L10.2275 15.3157ZM6.94024 4.5V5H17.0598V4.5V4H6.94024V4.5ZM17.0598 4.5V5C19.4555 5 21.5 7.22045 21.5 10.094H22H22.5C22.5 6.78858 20.1209 4 17.0598 4V4.5ZM22 10.094H21.5V13.906H22H22.5V10.094H22ZM22 13.906H21.5C21.5 16.7796 19.4555 19 17.0598 19V19.5V20C20.1209 20 22.5 17.2114 22.5 13.906H22ZM17.0598 19.5V19H6.94024V19.5V20H17.0598V19.5ZM6.94024 19.5V19C4.54455 19 2.5 16.7796 2.5 13.906H2H1.5C1.5 17.2114 3.87909 20 6.94024 20V19.5ZM2 13.906H2.5V10.094H2H1.5V13.906H2ZM2 10.094H2.5C2.5 7.22045 4.54455 5 6.94024 5V4.5V4C3.87909 4 1.5 6.78858 1.5 10.094H2ZM10.2275 8.69543L9.953 9.11332L14.9829 12.4178L15.2574 11.9999L15.532 11.5821L10.5021 8.27755L10.2275 8.69543ZM15.2574 11.9999L14.9822 11.5825L9.95235 14.8983L10.2275 15.3157L10.5027 15.7332L15.5326 12.4174L15.2574 11.9999ZM10.2275 15.3157H10.7275V8.69543H10.2275H9.72754V15.3157H10.2275Z" fill="white"/>
</svg>
