<svg width="24" height="24" viewBox="0 0 24 24" fill="none" xmlns="http://www.w3.org/2000/svg">
<path d="M4.44636 6.89451C5.79745 6.89451 6.89273 5.79884 6.89273 4.44726C6.89273 3.09567 5.79745 2 4.44636 2C3.09527 2 2 3.09567 2 4.44726C2 5.79884 3.09527 6.89451 4.44636 6.89451Z" stroke="white" stroke-miterlimit="10" stroke-linejoin="round"/>
<path d="M6.57639 8.64557H2.31634V21.9895H6.57639V8.64557Z" stroke="white" stroke-miterlimit="10" stroke-linejoin="round"/>
<path d="M17.2687 8.21308C15.3285 8.21308 13.9787 9.28903 13.093 10.4705V8.65612H8.98057V22H13.2406V14.9958C13.2933 13.9515 13.6624 11.8945 15.7292 11.8945C17.3003 11.8945 17.6588 13.0232 17.7221 13.9409V22H21.9821V14.9536C21.9821 13.4451 22.5516 8.21308 17.2581 8.21308H17.2687Z" stroke="white" stroke-miterlimit="10" stroke-linejoin="round"/>
</svg>
