<svg width="48" height="48" viewBox="0 0 48 48" fill="none" xmlns="http://www.w3.org/2000/svg">
<rect x="0.769231" y="0.769231" width="46.4615" height="46.4615" rx="3.23077" fill="#EFF6FF" stroke="#162755" stroke-width="1.53846"/>
<mask id="mask0_372_2534" style="mask-type:alpha" maskUnits="userSpaceOnUse" x="1" y="1" width="46" height="46">
<rect x="1.68066" y="1.84961" width="44.6131" height="44.6024" rx="4" fill="#E3EFFF"/>
</mask>
<g mask="url(#mask0_372_2534)">
<line x1="32.8195" y1="-2.24161e-08" x2="32.8195" y2="50.0481" stroke="#BEDDFF" stroke-width="1.02564"/>
<line x1="41.1271" y1="-2.24161e-08" x2="41.1271" y2="50.0481" stroke="#BEDDFF" stroke-width="1.02564"/>
<line x1="24.5118" y1="-2.24161e-08" x2="24.5118" y2="50.0481" stroke="#BEDDFF" stroke-width="1.02564"/>
<line x1="7.89661" y1="-2.24161e-08" x2="7.89661" y2="50.0481" stroke="#BEDDFF" stroke-width="1.02564"/>
<line x1="16.2042" y1="-2.24161e-08" x2="16.2042" y2="50.0481" stroke="#BEDDFF" stroke-width="1.02564"/>
<line x1="-1.02441" y1="16.202" x2="49.0237" y2="16.202" stroke="#BEDDFF" stroke-width="1.02564"/>
<line x1="-1.02441" y1="7.89538" x2="49.0237" y2="7.89538" stroke="#BEDDFF" stroke-width="1.02564"/>
<line x1="-1.02441" y1="24.5106" x2="49.0237" y2="24.5106" stroke="#BEDDFF" stroke-width="1.02564"/>
<line x1="-1.02441" y1="41.1259" x2="49.0237" y2="41.1259" stroke="#BEDDFF" stroke-width="1.02564"/>
<line x1="-1.02441" y1="32.8173" x2="49.0237" y2="32.8173" stroke="#BEDDFF" stroke-width="1.02564"/>
<rect x="1.41211" y="1.53516" width="45.0024" height="44.9916" rx="4" fill="#BEDDFF"/>
</g>
<g filter="url(#filter0_d_372_2534)">
<path d="M13.2549 17.8978C13.2549 16.2607 14.582 14.9336 16.2191 14.9336H31.7814C33.4186 14.9336 34.7457 16.2607 34.7457 17.8978V29.6627C34.7457 31.2999 33.4186 32.627 31.7814 32.627H16.2191C14.582 32.627 13.2549 31.2999 13.2549 29.6627L13.2549 17.8978Z" fill="white" stroke="#162755" stroke-width="1.23077" stroke-linecap="round" stroke-linejoin="round"/>
<path d="M14.4004 15.7148L22.6083 23.0852C23.397 23.7935 24.5955 23.7841 25.373 23.0636L33.3033 15.7148" stroke="#162755" stroke-width="1.23077" stroke-linecap="round" stroke-linejoin="round"/>
</g>
<defs>
<filter id="filter0_d_372_2534" x="8.63965" y="11.3184" width="30.7217" height="26.9238" filterUnits="userSpaceOnUse" color-interpolation-filters="sRGB">
<feFlood flood-opacity="0" result="BackgroundImageFix"/>
<feColorMatrix in="SourceAlpha" type="matrix" values="0 0 0 0 0 0 0 0 0 0 0 0 0 0 0 0 0 0 127 0" result="hardAlpha"/>
<feOffset dy="1"/>
<feGaussianBlur stdDeviation="2"/>
<feComposite in2="hardAlpha" operator="out"/>
<feColorMatrix type="matrix" values="0 0 0 0 0.0969792 0 0 0 0 0.127894 0 0 0 0 0.2375 0 0 0 0.08 0"/>
<feBlend mode="normal" in2="BackgroundImageFix" result="effect1_dropShadow_372_2534"/>
<feBlend mode="normal" in="SourceGraphic" in2="effect1_dropShadow_372_2534" result="shape"/>
</filter>
</defs>
</svg>
