<svg width="24" height="24" viewBox="0 0 24 24" fill="none" xmlns="http://www.w3.org/2000/svg">
<path d="M21 10.206C20.9911 10.418 20.879 10.6601 20.6616 10.8513C19.791 11.6161 18.9199 12.3801 18.0484 13.1435C17.6415 13.5005 17.234 13.857 16.826 14.213C16.7677 14.2636 16.7528 14.3086 16.7708 14.3872C17.084 15.756 17.3947 17.1253 17.7028 18.4952C17.7652 18.7705 17.8266 19.0463 17.894 19.3207C17.9923 19.727 17.8668 20.1285 17.5501 20.3558C17.2017 20.6058 16.8317 20.622 16.4634 20.4036C15.2903 19.7062 14.1187 19.006 12.9486 18.3031C12.6754 18.1398 12.3989 17.9804 12.1302 17.8112C12.0404 17.7546 11.9751 17.7541 11.8829 17.8096C10.4599 18.6637 9.03387 19.5126 7.61258 20.3665C7.31073 20.5477 7.00243 20.6158 6.6688 20.4789C6.22738 20.2977 5.99675 19.8336 6.10645 19.3513C6.41666 17.9862 6.72735 16.621 7.03852 15.2559C7.104 14.9691 7.16256 14.6802 7.23354 14.3956C7.25409 14.3133 7.23975 14.2648 7.17737 14.2106C6.64267 13.7455 6.10932 13.2788 5.57732 12.8106C4.8319 12.1562 4.08362 11.5064 3.3425 10.8472C3.03994 10.5786 2.92522 10.2357 3.04926 9.84347C3.1733 9.45128 3.45053 9.21516 3.86399 9.17262C4.59674 9.09757 5.33068 9.03472 6.06415 8.96756C6.78973 8.90112 7.51531 8.83516 8.24089 8.76968C8.48275 8.74793 8.72461 8.72355 8.96671 8.70515C9.04462 8.69941 9.08621 8.66524 9.11536 8.59426C9.77259 7.04989 10.4309 5.50616 11.0904 3.96306C11.2725 3.53646 11.5978 3.29819 12.0112 3.30894C12.4247 3.3197 12.723 3.52165 12.8869 3.9014C13.3331 4.93457 13.7736 5.97012 14.2159 7.0052C14.4411 7.53098 14.6667 8.0582 14.888 8.58637C14.9219 8.66763 14.9704 8.69917 15.0553 8.70587C15.6384 8.75526 16.2214 8.80704 16.8042 8.86121C17.6528 8.93833 18.5013 9.01608 19.3497 9.09447C19.6193 9.11837 19.8891 9.14227 20.158 9.17238C20.647 9.23021 21.0038 9.63817 21 10.206Z" fill="#FFD454"/>
</svg>
